<svg width="101" height="101" viewBox="0 0 101 101" fill="none" xmlns="http://www.w3.org/2000/svg">
<circle cx="50.5" cy="50.5" r="50.5" fill="#2E2E2E"/>
<path d="M44.968 67H38.248L23.032 44.008V67H16.312V33.448H23.032L38.248 56.488V33.448H44.968V67ZM63.3209 33.496C66.8409 33.496 69.9289 34.184 72.5849 35.56C75.2729 36.936 77.3369 38.904 78.7769 41.464C80.2489 43.992 80.9849 46.936 80.9849 50.296C80.9849 53.656 80.2489 56.6 78.7769 59.128C77.3369 61.624 75.2729 63.56 72.5849 64.936C69.9289 66.312 66.8409 67 63.3209 67H51.6089V33.496H63.3209ZM63.0809 61.288C66.6009 61.288 69.3209 60.328 71.2409 58.408C73.1609 56.488 74.1209 53.784 74.1209 50.296C74.1209 46.808 73.1609 44.088 71.2409 42.136C69.3209 40.152 66.6009 39.16 63.0809 39.16H58.3289V61.288H63.0809ZM88.9911 67.336C87.7751 67.336 86.7671 66.968 85.9671 66.232C85.1991 65.464 84.8151 64.52 84.8151 63.4C84.8151 62.28 85.1991 61.352 85.9671 60.616C86.7671 59.848 87.7751 59.464 88.9911 59.464C90.1751 59.464 91.1511 59.848 91.9191 60.616C92.6871 61.352 93.0711 62.28 93.0711 63.4C93.0711 64.52 92.6871 65.464 91.9191 66.232C91.1511 66.968 90.1751 67.336 88.9911 67.336Z" fill="#009E66"/>
</svg>
